PathFileType	4	(X/Y/Z)	OpenSim_Sub10_CSStiffKnee_Accel.trc
DataRate	CameraRate	NumFrames	NumMarkers	Units	OrigDataRate	OrigDataStartFrame	OrigNumFrames
100	100	34	8	m	100	7153	8174
Frame#	Time	torso_imu_offset_imu	pelvis_imu_offset_imu	tibia_r_imu_offset_imu	femur_r_imu_offset_imu	tibia_l_imu_offset_imu	femur_l_imu_offset_imu	toes_r_imu_offset_imu	toes_l_imu_offset_imu
				X1	Y1	Z1	X2	Y2	Z2	X3	Y3	Z3	X4	Y4	Z4	X5	Y5	Z5	X6	Y6	Z6	X7	Y7	Z7	X8		Y8	Z8	

7153	71.52000000	10.63158308	-2.42796945	5.88278458	9.51330032	-0.62710046	6.08071528	16.73478477	6.36288681	-1.72879502	10.35569443	5.31766552	-1.10043095	12.63887589	4.13472316	0.77231223	10.38415886	0.32965064	-0.12459713	5.13390478	-0.37451581	8.71524569	13.10698685	4.27860942	15.05242653
7154	71.53000000	9.68307028	-2.28672417	5.28942581	8.82870512	-0.31298228	6.15391001	14.65331068	3.60255771	-0.22155269	13.39242508	4.04479564	-2.23478206	12.03144011	2.33668070	1.28181293	10.04468863	0.44579796	-0.14469917	4.63516302	-0.77262690	9.01625158	10.67294378	7.27996253	14.52639317
7155	71.54000000	8.71929146	-2.07134505	4.87892337	8.21233766	0.26421208	6.30660816	11.54318273	1.33243091	0.66864906	14.91610096	2.81089574	-2.81100128	10.95131162	-1.47172412	1.18814515	9.98721891	0.32366869	-0.44710292	4.61071605	-0.60993940	9.17300312	11.63674609	3.65082995	12.98557437
7156	71.55000000	8.02735532	-1.80818546	4.68610551	7.59316354	0.88903150	6.16935377	9.11155215	-0.19278253	-0.34174474	13.36554142	0.88360133	-2.40328795	10.13928771	-6.09690062	0.51446636	10.37053302	-0.06888330	-0.75221438	4.57667708	-0.69127122	8.92831304	10.21640535	-0.00494111	13.80166582
7157	71.56000000	7.45544593	-1.54453627	4.63255527	7.18597975	1.49382943	5.67736319	8.18412646	-0.14112077	0.07103509	10.48005766	-1.44495400	-1.57570699	9.04758619	-10.47486888	-2.05839742	10.51714200	-0.41510782	-0.79195840	4.62962020	-0.74552931	8.76504606	6.83168497	4.24523434	20.55185999
7158	71.57000000	7.00527914	-1.61946886	4.45456870	6.95111887	2.07944685	5.02177787	8.61822372	0.49968971	1.10004937	8.38995411	-3.20684402	-0.66360067	7.47057741	-12.30041061	-4.72639843	10.11592936	-0.31009798	-0.39045923	4.91410374	-0.68096115	8.57364614	3.30635470	5.54345998	20.18393072
7159	71.58000000	6.55801173	-1.77104454	4.40465572	6.70961776	2.57100727	4.55054237	9.01345102	-0.21461366	1.07533017	7.25937502	-4.43001088	0.14362570	6.21881105	-11.89771804	-3.74005757	10.23262136	0.25002284	0.15473071	4.85024063	-0.59117250	8.29653979	-0.67197951	4.07702724	17.33246372
7160	71.59000000	6.27543274	-1.85334383	4.55137098	6.52930203	2.77762362	4.34599195	9.22002523	-1.66873023	0.53295516	6.80603173	-5.21093598	0.82222134	4.97682360	-10.80701373	-1.02356168	10.36128928	0.72828599	0.67295475	4.57422408	-0.57286214	8.51030844	-2.59257190	2.59773930	16.02000395
7161	71.60000000	6.23003588	-1.88155219	4.62186290	6.32255234	2.85583775	4.27308508	9.96738424	-2.37421897	0.57735735	6.76895951	-5.06844211	1.13883532	3.30191157	-9.51263621	0.51763920	9.62110672	0.77782918	1.03548583	4.38313998	-0.66560752	8.84071604	-3.20273072	1.16541296	15.16601956
7162	71.61000000	6.33735912	-1.77903205	4.67219550	6.01544971	2.82524122	4.19259008	10.72275621	-1.56062544	0.30894541	7.09737545	-3.87865538	1.15731801	1.86104517	-8.31541121	1.22171402	9.49331648	0.81931507	0.88908372	4.64414409	-0.80172878	8.69028739	-3.54976587	0.28339503	15.41827265
7163	71.62000000	6.59681462	-1.44789187	4.73095770	5.69961567	2.89242254	4.05452808	10.52661906	0.23722781	-0.34670914	7.70561062	-2.46520395	0.72640064	0.74441441	-7.29738240	1.40519057	8.75598217	0.13808070	0.67543956	4.92480244	-0.88819702	8.52918831	-3.83411037	-0.56076494	14.90784124
7164	71.63000000	6.86572908	-0.99626423	4.84832383	5.42516816	2.94048868	3.97263165	9.60787514	1.70573620	-0.07687080	8.13895364	-1.21279121	-0.17821184	0.00291770	-5.93955850	1.27153018	7.92836763	-0.28108793	0.49689328	4.88123396	-0.89407532	8.42797123	-3.51777338	-0.67124974	14.66951996
7165	71.64000000	6.97176659	-0.57963922	4.93504072	5.27933501	2.86656128	4.04007094	8.60267486	2.07017378	0.81599397	8.19754549	-0.08815359	-0.71733343	0.17220532	-4.78346419	1.27378309	7.80536914	-0.64328312	0.15433309	5.02113160	-0.53762903	8.48447641	-2.93477320	-0.68899607	14.13989130
7166	71.65000000	6.91781106	-0.32193397	4.88908968	5.37028923	2.81969289	4.20923163	8.31714984	1.22912292	1.29271952	8.31563120	0.63346955	-0.75427987	1.10488631	-4.52403137	1.10404422	7.36282201	-0.81693770	-0.27271859	5.05589994	-0.07211316	8.49667035	-2.09568518	-0.39941088	13.71836747
7167	71.66000000	6.88480744	-0.38788998	4.82261676	5.73843849	2.72359770	4.34219708	9.08615327	0.21670255	1.40851579	8.79313038	0.91701762	-0.53645582	2.48391980	-4.79770475	0.80510508	7.98402186	-0.97599095	-0.51371931	4.95817011	0.27631713	8.68202904	-1.18363931	-0.42443564	13.33526306
7168	71.67000000	7.03979397	-0.47342060	4.85660650	6.37058467	2.64654048	4.47003970	10.10174997	-0.00408582	1.19185830	9.28402274	0.90264564	-0.30508201	3.93883078	-5.09385937	0.28332173	8.08228003	-0.73971214	-0.75203685	4.72689485	0.26516740	8.96600246	-0.20162298	-0.14180644	13.12544956
7169	71.68000000	7.24535066	-0.68509749	5.01655756	7.17292592	2.51137384	4.53922609	10.62714178	0.28856062	1.19459856	9.48111647	0.83770279	-0.02163880	5.09289392	-4.88533547	-0.06748054	7.97662981	-0.50174695	-0.83726841	4.76902305	0.16892471	8.89541955	0.79902240	0.55151587	12.96894847
7170	71.69000000	7.60380601	-1.10399547	5.20875090	7.98851148	2.31560474	4.60328655	10.47843181	0.16436738	1.34568168	9.52629986	0.70343247	0.27264421	6.14085353	-4.00277029	0.05759661	8.67738196	-0.29603128	-0.67960716	4.79901199	0.15394094	8.99022410	1.94159193	1.15606884	12.84416271
7171	71.70000000	7.94704053	-1.48311192	5.29923912	8.55023891	2.04315897	4.57763447	10.08022433	-0.42708313	1.27096447	9.40874944	0.34323761	0.27739999	6.87454105	-2.50187297	0.75084278	8.55587013	0.57349090	-0.61227130	5.11045861	0.21604291	8.72872082	3.11238419	1.37404982	12.52226212
7172	71.71000000	8.29309488	-1.74711454	5.36659197	8.90514792	1.65453714	4.39469224	9.90521914	-0.89925841	0.84629826	9.19006725	-0.07036099	0.00424969	7.52689398	-0.94393866	1.90404490	8.66055666	0.95212708	-0.44587416	5.06947647	0.19395373	8.64454100	3.97183753	1.46078670	11.84286319
7173	71.72000000	8.64949517	-1.85105377	5.41274451	9.09239752	1.35197431	4.30127211	10.06698479	-1.06168049	0.21354263	9.27555446	-0.52183730	-0.33103661	8.69557038	-0.00735446	2.87062329	8.95325967	1.19857127	-0.24297170	4.81912377	-0.16091894	8.85855005	4.50803427	2.08855954	11.36992012
7174	71.73000000	8.81800803	-1.72573638	5.49562864	8.91860182	1.18724663	4.32964347	10.38468270	-0.93578598	0.01355587	9.41323489	-1.03750616	-0.63955259	10.19618075	0.07108039	3.17931843	8.97638598	1.46137197	-0.15561135	4.74051600	-0.48215339	8.79320215	5.83121037	2.75346876	11.98769052
7175	71.74000000	8.93074529	-1.41994288	5.65003672	8.66444331	1.17563001	4.28382951	10.39873424	-0.53042271	-0.07110168	9.23369390	-1.43277347	-0.85765244	11.00720204	-0.41074638	2.68558458	8.99458737	1.65300960	-0.07401423	5.13741683	-0.33147013	8.59244711	8.34639181	2.57569573	13.32588669
7176	71.75000000	9.13697854	-1.10750516	5.83094986	8.52962119	1.37694938	4.16700185	10.20765607	0.01764871	-0.30377678	8.86021175	-1.63060214	-0.87703211	10.88757633	-0.95513020	2.63021453	9.01785941	1.94246948	0.02920286	5.12494893	-0.23278427	8.67128200	10.07082896	2.39839936	14.18001564
7177	71.76000000	9.38876555	-1.04342931	5.91208372	8.45955672	1.68614720	4.10295498	10.03059144	0.65062068	-0.33209895	8.55251737	-1.56699575	-0.71601953	10.64039711	-1.55893695	3.16412725	8.26439716	2.28138866	0.10136060	4.90163213	-0.40389413	8.79929888	10.16532539	2.85502642	14.03078672
7178	71.77000000	9.60676736	-1.33784910	5.84884387	8.45298216	2.07187772	4.03882462	10.01436414	1.03258414	-0.09097083	8.50896134	-1.27271557	-0.67383603	10.75933780	-2.12947766	3.20438047	9.06667589	2.27785416	0.30808430	4.93914101	-0.44422374	8.78591257	10.05043309	3.36776879	13.52429071
7179	71.78000000	9.56694987	-1.56275678	5.95534250	8.49069315	2.48762044	4.02807625	9.95476233	0.94516197	0.09793901	8.75231687	-0.82312087	-0.69146417	11.09523151	-2.26219712	2.99313569	9.19695683	2.45148061	0.41277229	5.08307492	-0.30575573	8.64392873	10.52734559	3.53780231	13.18079440
7180	71.79000000	9.40386971	-1.64526650	5.96924826	8.53068181	2.81116572	4.02989014	9.84828144	0.52513412	0.29309645	9.08373975	-0.23920351	-0.72480903	11.28786343	-2.21154052	3.05696567	8.47168456	2.57339365	0.36498888	5.02706482	-0.17525096	8.67772439	11.02937250	3.24824126	12.96343444
7181	71.80000000	9.24356497	-1.67976517	5.84587001	8.55622395	3.07810382	4.09275066	9.85121388	0.08826122	0.31715196	9.27316806	0.29475940	-0.66232494	11.29765047	-2.04215307	3.11841053	9.32929333	2.44987813	0.59608051	4.82180211	-0.16840891	8.87699681	11.10316663	2.53019586	12.51204422
7182	71.81000000	9.08445115	-1.71898284	5.88377065	8.53896121	3.29781624	4.19082737	10.02840983	-0.28630739	0.07167235	9.30423839	0.69600824	-0.47728374	11.29449870	-1.67795912	2.79496290	9.21327415	3.04207257	0.52393593	4.84319187	-0.31725650	8.78293322	10.78325506	2.11032150	12.06583907
7183	71.82000000	9.14217171	-1.65288958	6.18521850	8.49739341	3.40085298	4.19156295	10.14019862	-0.44848653	-0.15587775	9.27211689	0.93581927	-0.34391899	11.32880590	-1.60640687	2.32437958	9.28402854	3.40614769	0.46081542	4.86553931	-0.40617344	8.77842831	10.56429479	2.11189347	11.89015653
7184	71.83000000	9.15570244	-1.55496736	6.12921859	8.43482815	3.42985702	4.14657612	10.15448221	-0.23522325	-0.14873430	9.26855857	0.92236389	-0.33369355	11.41426577	-2.01773721	1.73066248	9.37569821	4.10261691	0.60012163	4.96879397	-0.43799137	8.71789991	10.82962658	1.98873154	11.75429615
7185	71.84000000	8.94410550	-1.54795093	5.84925810	8.32032417	3.45088450	4.07770464	10.08832774	0.30473876	-0.08411778	9.27632911	0.82951823	-0.42970952	11.48726100	-2.32596168	1.15785837	8.99033785	4.63293486	0.71118237	4.96798117	-0.45192384	8.66687301	10.82826896	1.03847768	11.16133378
7186	71.85000000	8.78152091	-1.64383589	5.71612120	8.28567162	3.43661991	4.00214121	9.87327222	0.95556987	-0.03013526	9.24171281	0.76267652	-0.51831719	11.52058287	-2.27080849	1.05476988	8.58323361	5.11054120	0.79980669	5.12599919	-0.34822428	8.62938995	10.55489561	0.06374357	10.25300521
